<?xml version='1.0' encoding='utf-8'?>
<svg xmlns="http://www.w3.org/2000/svg" width="1920" height="1080" viewBox="0 0 1920 1080" data-theme="light">
  <style>
        @font-face {
            font-family: 'Inter';
            src: url('assets/fonts/Inter-Regular.ttf') format('truetype');
            font-weight: 400;
            font-style: normal;
            font-display: swap;
        }
        @font-face {
            font-family: 'Inter';
            src: url('assets/fonts/Inter-Bold.ttf') format('truetype');
            font-weight: 600;
            font-style: normal;
            font-display: swap;
        }
        @font-face {
            font-family: 'Inter';
            src: url('assets/fonts/Inter-Bold.ttf') format('truetype');
            font-weight: 800;
            font-style: normal;
            font-display: swap;
        }
        
:root {
    --background: #f8fafc;
    --panel: #ffffff;
    --primary-text: #0f172a;
    --muted-text: #64748b;
    --inverse-text: #ffffff;
    --border: #e2e8f0;
    --shadow-color: #000000;
    --icon-pad-bg: #1e293b;
    --art-glow: #0891b2;
    --art-glow-opacity: 0.10;
    --art-sheen: #ffffff;
    --art-sheen-opacity: 0.34;
    --art-shadow: #0f172a;
    --art-shadow-opacity: 0.14;
    --art-muted-line: #94a3b8;
    --art-panel-tint: #f1f5f9;
    --font-family: 'Inter', 'Segoe UI', 'Kalam', Roboto, Helvetica, Arial, sans-serif;
    --radius-xl: 16px;
    --font-family-headline: 'Inter', 'Segoe UI', 'Kalam', Roboto, Helvetica, Arial, sans-serif;
    --font-family-body: 'Inter', 'Segoe UI', 'Kalam', Roboto, Helvetica, Arial, sans-serif;
    --font-heading: 'Inter', 'Segoe UI', 'Kalam', Roboto, Helvetica, Arial, sans-serif;
    --font-body: 'Inter', 'Segoe UI', 'Kalam', Roboto, Helvetica, Arial, sans-serif;
    --font-size-h1: 56px;
    --font-size-h2: 40px;
    --font-size-h3: 28px;
    --font-size-body: 24px;
    --font-size-caption: 18px;
    --secondary-text: var(--muted-text);
    --panel-border: var(--border);
    --font-weight-normal: 400;
    --font-weight-medium: 500;
    --font-weight-semibold: 600;
    --font-weight-bold: 700;
    --spacing-gutter-pct: 0.07;
    --spacing-top-pct: 0.15;
    --spacing-bottom-pct: 0.07;
    --spacing-title-y-pct: 0.055;
    --accent-1: #4f46e5;
    --accent-2: #059669;
    --accent-3: #db2777;
    --accent-4: #d97706;
    --accent-5: #0284c7;
    --accent-6: #7c3aed;
    --accent-7: #dc2626;
    --accent-8: #0d9488;
    --accent-9: #ea580c;
    --accent-10: #c026d3;
}
:root[data-theme="dark"] {
    --background: #0f172a;
    --panel: #1e293b;
    --primary-text: #f1f5f9;
    --muted-text: #94a3b8;
    --inverse-text: #0f172a;
    --border: #334155;
    --shadow-color: #000000;
    --icon-pad-bg: #1e293b;
    --art-glow: #7dd3fc;
    --art-glow-opacity: 0.18;
    --art-sheen: #ffffff;
    --art-sheen-opacity: 0.18;
    --art-shadow: #000000;
    --art-shadow-opacity: 0.28;
    --art-muted-line: #64748b;
    --art-panel-tint: #1e293b;
    --accent-1: #a5b4fc;
    --accent-2: #34d399;
    --accent-3: #f472b6;
    --accent-4: #fbbf24;
    --accent-5: #38bdf8;
    --accent-6: #c084fc;
    --accent-7: #f87171;
    --accent-8: #2dd4bf;
    --accent-9: #fb923c;
    --accent-10: #e879f9;
}
:root[data-theme="light"] {
    --background: #f8fafc;
    --panel: #ffffff;
    --primary-text: #0f172a;
    --muted-text: #64748b;
    --inverse-text: #ffffff;
    --border: #e2e8f0;
    --shadow-color: #000000;
    --icon-pad-bg: #1e293b;
    --art-glow: #0891b2;
    --art-glow-opacity: 0.10;
    --art-sheen: #ffffff;
    --art-sheen-opacity: 0.34;
    --art-shadow: #0f172a;
    --art-shadow-opacity: 0.14;
    --art-muted-line: #94a3b8;
    --art-panel-tint: #f1f5f9;
    --accent-1: #4f46e5;
    --accent-2: #059669;
    --accent-3: #db2777;
    --accent-4: #d97706;
    --accent-5: #0284c7;
    --accent-6: #7c3aed;
    --accent-7: #dc2626;
    --accent-8: #0d9488;
    --accent-9: #ea580c;
    --accent-10: #c026d3;
}</style>
  <rect x="0" y="0" width="1.92E+3" height="1.08E+3" fill="#252a34" stroke="none" id="programmatic_background"/>
  <line id="HEADER_DECOR" x1="960.0" x2="1080.0" y1="135.0" y2="135.0" stroke="var(--accent-1)" stroke-width="6" stroke-linecap="round"/>
  <defs>
    <pattern id="svgbc738d18-napkin-hatch" patternUnits="userSpaceOnUse" width="12" height="12">
      <path d="M -3 12 L 12 -3 M 0 15 L 15 0" fill="none" stroke="var(--primary-text)" stroke-width="1" stroke-opacity="0.05"/>
    </pattern>
    <filter id="svgbc738d18-soft-shadow" x="-30%" y="-30%" width="160%" height="160%">
      <feDropShadow dx="0" dy="3" stdDeviation="6" flood-color="#000000" flood-opacity="0.20"/>
    </filter>
    <radialGradient id="svgbc738d18-universal-edge-vignette" cx="50%" cy="50%" r="72%">
      <stop offset="0%" stop-color="var(--background)" stop-opacity="0"/>
      <stop offset="72%" stop-color="var(--background)" stop-opacity="0.12"/>
      <stop offset="100%" stop-color="var(--primary-text)" stop-opacity="0.08"/>
    </radialGradient>
    <linearGradient id="svgbc738d18-universal-surface-sheen" x1="0%" y1="0%" x2="100%" y2="100%">
      <stop offset="0%" stop-color="var(--art-sheen)" stop-opacity="var(--art-sheen-opacity)"/>
      <stop offset="46%" stop-color="var(--art-sheen)" stop-opacity="0.035"/>
      <stop offset="100%" stop-color="var(--art-panel-tint)" stop-opacity="0.14"/>
    </linearGradient>
    <radialGradient id="svgbc738d18-universal-icon-aura" cx="50%" cy="42%" r="64%">
      <stop offset="0%" stop-color="var(--art-glow)" stop-opacity="var(--art-glow-opacity)"/>
      <stop offset="100%" stop-color="var(--background)" stop-opacity="0"/>
    </radialGradient>
    <filter id="svgbc738d18-text-glow" x="-20%" y="-20%" width="140%" height="140%">
      <feDropShadow dx="0" dy="0" stdDeviation="2" flood-color="#000000" flood-opacity="0.4"/>
    </filter>
    <filter id="svgbc738d18-shadow" x="-30%" y="-30%" width="160%" height="160%">
      <feDropShadow dx="0" dy="2" stdDeviation="3" flood-color="#000000" flood-opacity="0.08"/>
      <feDropShadow dx="0" dy="6" stdDeviation="10" flood-color="#000000" flood-opacity="0.12"/>
    </filter>
    <marker id="svgbc738d18-arrowhead" markerWidth="10" markerHeight="7" refX="9" refY="3.5" orient="auto" markerUnits="strokeWidth">
      <polygon points="0 0, 10 3.5, 0 7" fill="var(--muted-text)" opacity="0.6"/>
    </marker>
  </defs>
  <rect id="CANVAS_BG" width="100%" height="100%" fill="var(--background)"/>
  <rect width="100%" height="100%" fill="url(#svgbc738d18-napkin-hatch)"/>
  <rect id="UNIVERSAL_EDGE_VIGNETTE" width="100%" height="100%" fill="url(#svgbc738d18-universal-edge-vignette)" opacity="0.62"/>
  <text id="TITLE" x="960.0" y="59" text-anchor="middle" font-size="56" font-weight="800" fill="#0f172a" style="font-size: 60px; font-family: Inter, Segoe UI, Kalam, Roboto, Helvetica, Arial, sans-serif; font-weight: 700; letter-spacing:-1.2px;" data-final-font-size="60">
    <tspan x="960.0" dy="68.00px">Commercial Modifier Signal Types</tspan>
  </text>
  <rect id="TITLE_FRAME" x="134" y="59" width="1652" height="103" fill="none"/>
  <line x1="687.0" y1="434.0" x2="768.0" y2="434.0" stroke="var(--muted-text)" stroke-width="4" stroke-dasharray="10 9" opacity="0.8"/>
  <circle cx="727.5" cy="434.0" r="34" fill="var(--panel)" stroke="var(--muted-text)" stroke-width="2"/>
  <text x="727.5" y="444.0" text-anchor="middle" font-size="34" font-weight="900" fill="var(--muted-text)">VS</text>
  <line x1="1152.0" y1="434.0" x2="1233.0" y2="434.0" stroke="var(--muted-text)" stroke-width="4" stroke-dasharray="10 9" opacity="0.8"/>
  <circle cx="1192.5" cy="434.0" r="34" fill="var(--panel)" stroke="var(--muted-text)" stroke-width="2"/>
  <text x="1192.5" y="444.0" text-anchor="middle" font-size="34" font-weight="900" fill="var(--muted-text)">VS</text>
  <line x1="882.0" y1="824.0" x2="1038.0" y2="824.0" stroke="var(--muted-text)" stroke-width="4" stroke-dasharray="10 9" opacity="0.8"/>
  <circle cx="960.0" cy="824.0" r="34" fill="var(--panel)" stroke="var(--muted-text)" stroke-width="2"/>
  <text x="960.0" y="834.0" text-anchor="middle" font-size="34" font-weight="900" fill="var(--muted-text)">VS</text>
  <g transform="translate(495.0, 280.0)" filter="url(#svgbc738d18-soft-shadow)">
    <rect id="ITEM_1_BG" x="-200.0" y="0" width="400.0" height="360" rx="26" fill="var(--panel)" fill-opacity="0.95" stroke="var(--accent-1)" stroke-width="3"/>
    <rect x="-184.0" y="12" width="368.0" height="8" rx="4" fill="var(--accent-1)" fill-opacity="0.55"/>
    <circle id="ITEM_1_PAD" cx="0" cy="74" r="46" fill="var(--icon-pad-bg)" stroke="var(--primary-text)" opacity="0.9" fill-opacity="0.9" stroke-width="2"/>
    <circle id="ITEM_1_PAD_INNER" cx="0" cy="74" r="35.88" fill="var(--accent-9)" fill-opacity="0.22"/>
    <circle cx="0" cy="74" r="36" fill="none" stroke="var(--accent-1)" stroke-width="3" stroke-dasharray="6 4"/>
    <g id="ITEM_1_ICON" transform="translate(-34, 40)" data-icon-size="68" stroke-dasharray="6 4">
      <g transform="translate(-6.044642857142861,-7.005714285714289) scale(2.562857142857143)">
        <path d="M10.5208 7.52114C10.0012 5.7093 8.1239 4.65179 6.30748 5.15196C6.27354 5.1604 6.20545 5.17748 6.14394 5.19799C3.65095 6.02898 3.45292 9.41201 5.68876 10.6483L10.6585 13.3981C11.0772 13.6298 11.6044 13.4782 11.8361 13.0595C12.0678 12.6408 11.9161 12.1135 11.4974 11.8819L6.52712 9.13168C5.54516 8.58886 5.70443 7.17631 6.68631 6.84385L6.69246 6.84216C6.70347 6.83922 6.7167 6.8359 6.73807 6.83055C6.74577 6.82863 6.75344 6.8266 6.76109 6.82446C7.66072 6.57309 8.59583 7.09488 8.85505 7.99882C8.98695 8.45881 9.46678 8.72477 9.92677 8.59286C10.3868 8.46095 10.6527 7.98112 10.5208 7.52114Z" fill="#D3883E"/>
        <path d="M22.4608 7.99882C22.72 7.09488 23.6552 6.57309 24.5548 6.82446C24.5624 6.8266 24.5701 6.82863 24.5778 6.83055C24.5992 6.8359 24.6124 6.83922 24.6234 6.84216L24.6296 6.84385C25.6114 7.17631 25.7704 8.58902 24.7884 9.13185L19.8184 11.8819C19.3997 12.1135 19.2481 12.6408 19.4798 13.0595C19.7115 13.4782 20.2387 13.6298 20.6574 13.3981L25.6274 10.6481C27.8633 9.41184 27.6649 6.02898 25.1719 5.19799C25.1104 5.17748 25.0423 5.1604 25.0084 5.15196C23.192 4.65179 21.3146 5.7093 20.7951 7.52114C20.6632 7.98112 20.9291 8.46095 21.3891 8.59286C21.8491 8.72477 22.3289 8.45881 22.4608 7.99882Z" fill="#D3883E"/>
        <path d="M17.328 17.51V13.29H13.9879V17.51C13.9879 18.25 13.658 18.96 13.088 19.43L11.168 21.03H20.1479L18.228 19.43C17.658 18.95 17.328 18.25 17.328 17.51Z" fill="#D3883E"/>
        <path d="M15.658 16.54C11.808 16.54 8.68799 13.42 8.68799 9.56999V2.70999C8.68799 2.31999 9.00798 2 9.39798 2H21.928C22.318 2 22.638 2.31999 22.638 2.70999V9.56999C22.638 13.42 19.518 16.54 15.658 16.54Z" fill="#FFB02E"/>
        <path d="M22.7923 21.03H8.19719C7.42737 21.03 6.77355 21.54 6.62592 22.25L5.01245 29.34C4.93863 29.67 5.20226 29.98 5.56081 29.98H25.4392C25.7977 29.98 26.0614 29.67 25.9876 29.34L24.3741 22.25C24.2159 21.54 23.5621 21.03 22.7923 21.03Z" fill="#6D4534"/>
        <path d="M18.383 23.96H12.617C12.2817 23.96 12.004 24.24 12.004 24.6V26.41C12.004 26.76 12.2721 27.05 12.617 27.05H18.383C18.7183 27.05 18.996 26.77 18.996 26.41V24.6C18.996 24.25 18.7278 23.96 18.383 23.96Z" fill="#FFB02E"/>
      </g>
    </g>
    <text id="ITEM_1_HEAD" x="0.0" y="138.0" text-anchor="middle" font-size="44" font-weight="800" fill="var(--primary-text)" data-bg-id="ITEM_1_BG" fill-opacity="1.0" style="font-size: 30px; font-family: Inter, Segoe UI, Kalam, Roboto, Helvetica, Arial, sans-serif; font-weight: 700; letter-spacing:-0.4px;" data-final-font-size="30">
      <tspan x="0.0" dy="42.25px">Best and Review</tspan>
    </text>
    <rect id="ITEM_1_HEAD_FRAME" x="-165.0" y="138" width="330.0" height="68" fill="none"/>
    <text id="ITEM_1_BODY" x="0.0" y="206.0" text-anchor="middle" font-size="27" fill="var(--primary-text)" data-bg-id="ITEM_1_BG" style="font-size: 26px; font-family: Inter, Segoe UI, Kalam, Roboto, Helvetica, Arial, sans-serif; font-weight: 400;" data-final-font-size="26">
      <tspan x="0.0" dy="33.66px">Signals a user is choosing</tspan>
      <tspan x="0.0" dy="29.90px">between specific</tspan>
      <tspan x="0.0" dy="29.90px">product options</tspan>
    </text>
    <rect id="ITEM_1_BODY_FRAME" x="-190.0" y="206" width="380" height="154" fill="none"/>
  </g>
  <g transform="translate(960.0, 280.0)" filter="url(#svgbc738d18-soft-shadow)">
    <rect id="ITEM_2_BG" x="-200.0" y="0" width="400.0" height="360" rx="26" fill="var(--panel)" fill-opacity="0.95" stroke="var(--accent-2)" stroke-width="3"/>
    <rect x="-184.0" y="12" width="368.0" height="8" rx="4" fill="var(--accent-2)" fill-opacity="0.55"/>
    <circle id="ITEM_2_PAD" cx="0" cy="74" r="46" fill="var(--icon-pad-bg)" stroke="var(--primary-text)" opacity="0.9" fill-opacity="0.9" stroke-width="2"/>
    <circle id="ITEM_2_PAD_INNER" cx="0" cy="74" r="35.88" fill="var(--accent-10)" fill-opacity="0.22"/>
    <circle cx="0" cy="74" r="36" fill="none" stroke="var(--accent-2)" stroke-width="3" stroke-dasharray="6 4"/>
    <g id="ITEM_2_ICON" transform="translate(-34, 40)" data-icon-size="68" stroke-dasharray="6 4">
      <g transform="translate(-7.005714285714289,-7.005714285714289) scale(2.562857142857143)">
        <path d="M19.949 11.75H23.969C24.389 11.75 24.719 11.41 24.719 11C24.719 10.59 24.379 10.25 23.969 10.25H19.949C19.569 10.25 19.219 10.07 18.999 9.76999L16.629 6.51999C16.4584 6.2948 16.1854 6.19068 15.9243 6.22353C15.6985 6.22945 15.4794 6.33695 15.339 6.52999L12.969 9.76999C12.749 10.07 12.389 10.25 12.019 10.25H7.99902C7.58902 10.25 7.24902 10.59 7.24902 11C7.24902 11.41 7.58902 11.75 7.99902 11.75H12.019C12.869 11.75 13.679 11.34 14.179 10.66L15.9877 8.1874L17.789 10.65C18.289 11.34 19.099 11.75 19.949 11.75Z" fill="#9B9B9B"/>
        <path d="M15.249 4H16.749V28H15.249V4ZM13.0391 20.73C13.1291 20.88 13.2991 20.96 13.4591 20.96C13.5491 20.96 13.6391 20.94 13.6991 20.88C13.9291 20.73 13.9991 20.42 13.8491 20.19L8.47739 11.8516C8.41545 11.646 8.22717 11.5 7.99907 11.5C7.83813 11.5 7.54907 11.77 7.54907 11.77L2.15907 20.15C2.08907 20.23 2.04907 20.34 2.04907 20.46C2.04907 20.74 2.26907 20.96 2.54907 20.96C2.71907 20.96 2.87907 20.87 2.96907 20.73L7.49902 13.6964V20.8C7.49902 21.08 7.71902 21.3 7.99902 21.3C8.27902 21.3 8.49902 21.08 8.49902 20.8V13.6947L13.0391 20.73ZM29.0391 20.73C29.1291 20.88 29.2991 20.96 29.4591 20.96C29.5491 20.96 29.6391 20.94 29.6991 20.88C29.9291 20.73 29.9991 20.42 29.8491 20.19L24.4774 11.8516C24.4154 11.646 24.2272 11.5 23.9991 11.5C23.8381 11.5 23.64 11.655 23.5491 11.77L18.1591 20.15C18.0891 20.23 18.0491 20.34 18.0491 20.46C18.0491 20.74 18.2691 20.96 18.5491 20.96C18.7191 20.96 18.8791 20.87 18.9691 20.73L23.499 13.6964V20.8C23.499 21.08 23.719 21.3 23.999 21.3C24.279 21.3 24.499 21.08 24.499 20.8V13.6947L29.0391 20.73Z" fill="#D3D3D3"/>
        <path d="M17.5891 3.59C17.5891 4.46813 16.8772 5.18 15.9991 5.18C15.1209 5.18 14.4091 4.46813 14.4091 3.59C14.4091 2.71187 15.1209 2 15.9991 2C16.8772 2 17.5891 2.71187 17.5891 3.59Z" fill="#F9C23C"/>
        <path d="M9.58906 11C9.58906 11.8781 8.87719 12.59 7.99906 12.59C7.12092 12.59 6.40906 11.8781 6.40906 11C6.40906 10.1219 7.12092 9.41 7.99906 9.41C8.87719 9.41 9.58906 10.1219 9.58906 11Z" fill="#F9C23C"/>
        <path d="M2.01904 20.64C1.92904 20.32 2.16904 20 2.50904 20H13.489C13.829 20 14.069 20.32 13.979 20.64C13.239 23.2 10.849 25 7.99904 25C5.14904 25 2.75904 23.2 2.01904 20.64Z" fill="#F9C23C"/>
        <path d="M18.019 20.64C17.929 20.32 18.169 20 18.509 20H29.489C29.829 20 30.069 20.32 29.979 20.64C29.239 23.2 26.849 25 23.999 25C21.149 25 18.759 23.2 18.019 20.64Z" fill="#F9C23C"/>
        <path d="M23.3991 30C23.8791 30 24.1091 29.42 23.7591 29.09C21.7391 27.17 19.0091 26 15.9991 26C12.9891 26 10.2591 27.17 8.23908 29.09C7.88908 29.42 8.11908 30 8.59908 30H23.3991Z" fill="#F9C23C"/>
        <path d="M23.9991 12.59C24.8772 12.59 25.5891 11.8781 25.5891 11C25.5891 10.1219 24.8772 9.41 23.9991 9.41C23.1209 9.41 22.4091 10.1219 22.4091 11C22.4091 11.8781 23.1209 12.59 23.9991 12.59Z" fill="#F9C23C"/>
      </g>
    </g>
    <text id="ITEM_2_HEAD" x="0.0" y="138.0" text-anchor="middle" font-size="44" font-weight="800" fill="var(--accent-10)" data-bg-id="ITEM_2_BG" fill-opacity="1.0" style="font-size: 30px; font-family: Inter, Segoe UI, Kalam, Roboto, Helvetica, Arial, sans-serif; font-weight: 700; letter-spacing:-0.4px;" data-final-font-size="30">
      <tspan x="0.0" dy="42.25px">Vs and Compare</tspan>
    </text>
    <rect id="ITEM_2_HEAD_FRAME" x="-165.0" y="138" width="330.0" height="68" fill="none"/>
    <text id="ITEM_2_BODY" x="0.0" y="206.0" text-anchor="middle" font-size="27" fill="var(--primary-text)" data-bg-id="ITEM_2_BG" style="font-size: 26px; font-family: Inter, Segoe UI, Kalam, Roboto, Helvetica, Arial, sans-serif; font-weight: 400;" data-final-font-size="26">
      <tspan x="0.0" dy="33.66px">Indicates a narrowed shortlist</tspan>
      <tspan x="0.0" dy="29.90px">requiring final evidence</tspan>
      <tspan x="0.0" dy="29.90px">for choice</tspan>
    </text>
    <rect id="ITEM_2_BODY_FRAME" x="-190.0" y="206" width="380" height="154" fill="none"/>
  </g>
  <g transform="translate(1425.0, 280.0)" filter="url(#svgbc738d18-soft-shadow)">
    <rect id="ITEM_3_BG" x="-200.0" y="0" width="400.0" height="360" rx="26" fill="var(--panel)" fill-opacity="0.95" stroke="var(--accent-3)" stroke-width="3"/>
    <rect x="-184.0" y="12" width="368.0" height="8" rx="4" fill="var(--accent-3)" fill-opacity="0.55"/>
    <circle id="ITEM_3_PAD" cx="0" cy="74" r="46" fill="var(--icon-pad-bg)" stroke="var(--primary-text)" opacity="0.9" fill-opacity="0.9" stroke-width="2"/>
    <circle id="ITEM_3_PAD_INNER" cx="0" cy="74" r="35.88" fill="var(--accent-1)" fill-opacity="0.22"/>
    <circle cx="0" cy="74" r="36" fill="none" stroke="var(--accent-3)" stroke-width="3" stroke-dasharray="6 4"/>
    <g id="ITEM_3_ICON" transform="translate(-34, 40)" data-icon-size="68" stroke-dasharray="6 4">
      <g transform="translate(-4.920677966101698,-4.920677966101698) scale(0.15203389830508476)" vector-effect="non-scaling-stroke" fill="#f1f5f9" fill-opacity="1.0" stroke="none">
        <path fill="#f1f5f9" d="m208.7 22.36l22.4 77.23q13.35-2.49 27.6-2.49c8.5 0 16.8.68 24.9 2.02l22.2-76.76zm103.1 46.26l-10 34.78c15.2 4.8 29.1 12.3 40.8 22.7l25.5-23.8c-16-14.79-35.1-26.35-56.3-33.68m-108.9.86c-21 7.67-39.9 19.61-55.6 34.72l25.5 23.8c.1-.1.2-.3.4-.4c11.4-10.6 24.9-18.3 39.8-23.4zM97.56 83.35L59.71 139l86.09 30.1c3.7-10 8.6-19.1 14.5-27.1zm318.24 0l-60.3 56.35c6.4 8.2 11.7 17.6 15.7 28.1l82.4-28.8zM268 116v317.5h93.4V218.6c0-35.3-11.5-60.4-29.8-77.3c-16.2-15-38.3-23.6-63.6-25.3m-18.6 0c-25.2 1.7-47.3 10.3-63.6 25.3c-18.2 16.8-29.7 42-29.7 77.3v214.9h93.3zm163 57.3l-35.8 12.5c2.2 10.2 3.4 21.1 3.4 32.8v9.3h38.9v-9.3c0-15.8-2.3-31-6.5-45.3M105 174.7c-3.9 13.9-6.05 28.6-6.05 43.9v9.3h38.55v-9.3c0-11.2 1.1-21.7 3.1-31.4zm-39.3 71.8v56.2h71.8v-56.2zm314.3 0v56.2h66v-56.2zM98.95 321.3v37.5h38.55v-37.5zm281.05 0v37.5h38.9v-37.5zM56.16 377.4v56.1h81.34v-56.1zm323.84 0v56.1h75.8v-56.1zm-233.3 74.7l-39.6 37.5h297.4l-33-37.5z" vector-effect="non-scaling-stroke" stroke="none"/>
      </g>
    </g>
    <text id="ITEM_3_HEAD" x="0.0" y="138.0" text-anchor="middle" font-size="44" font-weight="800" fill="var(--accent-1)" data-bg-id="ITEM_3_BG" fill-opacity="1.0" style="font-size: 30px; font-family: Inter, Segoe UI, Kalam, Roboto, Helvetica, Arial, sans-serif; font-weight: 700; letter-spacing:-0.4px;" data-final-font-size="30">
      <tspan x="0.0" dy="42.25px">Alternative Options</tspan>
    </text>
    <rect id="ITEM_3_HEAD_FRAME" x="-165.0" y="138" width="330.0" height="68" fill="none"/>
    <text id="ITEM_3_BODY" x="0.0" y="206.0" text-anchor="middle" font-size="27" fill="var(--primary-text)" data-bg-id="ITEM_3_BG" style="font-size: 26px; font-family: Inter, Segoe UI, Kalam, Roboto, Helvetica, Arial, sans-serif; font-weight: 400;" data-final-font-size="26">
      <tspan x="0.0" dy="39.64px">Users seeking to switch from</tspan>
      <tspan x="0.0" dy="29.90px">current software or hardware</tspan>
    </text>
    <rect id="ITEM_3_BODY_FRAME" x="-190.0" y="206" width="380" height="154" fill="none"/>
  </g>
  <g transform="translate(690.0, 670.0)" filter="url(#svgbc738d18-soft-shadow)">
    <rect id="ITEM_4_BG" x="-200.0" y="0" width="400.0" height="360" rx="26" fill="var(--panel)" fill-opacity="0.95" stroke="var(--accent-4)" stroke-width="3"/>
    <rect x="-184.0" y="12" width="368.0" height="8" rx="4" fill="var(--accent-4)" fill-opacity="0.55"/>
    <circle id="ITEM_4_PAD" cx="0" cy="74" r="46" fill="var(--icon-pad-bg)" stroke="var(--primary-text)" opacity="0.9" fill-opacity="0.9" stroke-width="2"/>
    <circle id="ITEM_4_PAD_INNER" cx="0" cy="74" r="35.88" fill="var(--accent-2)" fill-opacity="0.22"/>
    <circle cx="0" cy="74" r="36" fill="none" stroke="var(--accent-4)" stroke-width="3" stroke-dasharray="6 4"/>
    <g id="ITEM_4_ICON" transform="translate(-34, 40)" data-icon-size="68" stroke-dasharray="6 4">
      <g transform="translate(-4.272000000000003,-4.272000000000002) scale(0.14950000000000002)" vector-effect="non-scaling-stroke" fill="#f1f5f9" fill-opacity="1.0" stroke="none">
        <path fill="#f1f5f9" d="M303.297 42.269q-2.31.037-4.476.158c-11.55.649-19.422 3.475-22.47 6.438L18.923 299.087L184.807 469.75l257.43-250.222c3.047-2.963 6.096-10.75 7.072-22.278s.207-26.288-1.645-42.248c-1.605-13.84-3.991-28.476-6.597-42.96c-12.99 9.51-28.1 16.583-48.25 20.222a40 40 0 0 1-11.38 36.191a40 40 0 0 1-56.562-.802a40 40 0 0 1 .803-56.563a40 40 0 0 1 29.031-11.3a40 40 0 0 1 27.532 12.103a40 40 0 0 1 2.998 3.5c24.115-3.229 38.245-11.132 52.109-23.326c-1.891-9.87-3.776-19.475-5.47-28.424c-27.556-6.032-61.042-14.049-90.872-18.371c-11.925-1.728-23.195-2.83-32.957-2.998q-2.441-.042-4.752-.004zm159.469 34.836c-3.39.175-6.773 1.444-9.342 3.283a2734 2734 0 0 1 3.7 19.365l5.326-3.707c.268.372.45.517.765 1.106c2.648 4.937 5.797 16.02 7.912 30.437c4.231 28.833 5.344 71.6 1.848 116.16s-11.623 91.069-25.262 127.625c-13.639 36.557-32.614 61.986-55.453 68.49c-8.264 2.354-12.21.983-16.803-3.57c-4.593-4.552-9.035-13.679-12.054-26.199c-5.115-21.207-6.457-51.417-5.526-83.469l-18.336 17.824c-.067 25.974 1.633 50.248 6.364 69.864c3.443 14.277 8.383 26.341 16.882 34.765s21.359 11.814 34.405 8.098c31.734-9.038 52.827-40.494 67.384-79.512s22.756-86.771 26.344-132.508c3.589-45.736 2.547-89.302-1.984-120.181c-2.266-15.44-5.15-27.556-9.858-36.332c-2.353-4.388-5.217-8.459-10.513-10.627c-1.324-.542-2.736-.832-4.174-.91q-.81-.044-1.625-.002M293.1 187.796l12.549 12.906l-29.38 28.563c6.195 6.952 11.437 14.253 15.71 21.908c5.1 9.1 8.755 18.47 10.96 28.12l-16.91 16.212q-1.421-16.44-7.652-30.496t-17.27-25.57q-21.758-22.696-44.751-22.59q-22.914.189-46.744 23.035q-23.752 22.772-24.907 45.656q-1.074 22.969 20.684 45.664q8.498 8.864 16.584 14.463q8.164 5.526 16.553 8.135l31.539-30.236l-26.205-27.336l13.054-12.516l42.09 43.9l-50.416 48.335q-15.82-3.435-30.398-11.872c-8.672-5.09-16.86-11.463-24.569-19.097l-25.826 24.635l-12.424-13.026l26.303-25.088c-12.28-16.036-18.338-32.69-18.164-49.963q.48-31.775 29.188-59.298q27.885-26.735 58.498-26.692q.987.002 1.976.031c17.69.524 34.44 7.564 50.254 21.069z" vector-effect="non-scaling-stroke" stroke="none"/>
      </g>
    </g>
    <text id="ITEM_4_HEAD" x="0.0" y="138.0" text-anchor="middle" font-size="44" font-weight="800" fill="var(--primary-text)" data-bg-id="ITEM_4_BG" fill-opacity="1.0" style="font-size: 30px; font-family: Inter, Segoe UI, Kalam, Roboto, Helvetica, Arial, sans-serif; font-weight: 700; letter-spacing:-0.4px;" data-final-font-size="30">
      <tspan x="0.0" dy="42.25px">Price and Discount</tspan>
    </text>
    <rect id="ITEM_4_HEAD_FRAME" x="-165.0" y="138" width="330.0" height="68" fill="none"/>
    <text id="ITEM_4_BODY" x="0.0" y="206.0" text-anchor="middle" font-size="27" fill="var(--primary-text)" data-bg-id="ITEM_4_BG" style="font-size: 26px; font-family: Inter, Segoe UI, Kalam, Roboto, Helvetica, Arial, sans-serif; font-weight: 400;" data-final-font-size="26">
      <tspan x="0.0" dy="33.66px">Movement from evaluation</tspan>
      <tspan x="0.0" dy="29.90px">toward final transaction</tspan>
      <tspan x="0.0" dy="29.90px">and payment</tspan>
    </text>
    <rect id="ITEM_4_BODY_FRAME" x="-190.0" y="206" width="380" height="154" fill="none"/>
  </g>
  <g transform="translate(1230.0, 670.0)" filter="url(#svgbc738d18-soft-shadow)">
    <rect id="ITEM_5_BG" x="-200.0" y="0" width="400.0" height="360" rx="26" fill="var(--panel)" fill-opacity="0.95" stroke="var(--accent-5)" stroke-width="3"/>
    <rect x="-184.0" y="12" width="368.0" height="8" rx="4" fill="var(--accent-5)" fill-opacity="0.55"/>
    <circle id="ITEM_5_PAD" cx="0" cy="74" r="46" fill="var(--icon-pad-bg)" stroke="var(--primary-text)" opacity="0.9" fill-opacity="0.9" stroke-width="2"/>
    <circle id="ITEM_5_PAD_INNER" cx="0" cy="74" r="35.88" fill="var(--accent-3)" fill-opacity="0.22"/>
    <circle cx="0" cy="74" r="36" fill="none" stroke="var(--accent-5)" stroke-width="3" stroke-dasharray="6 4"/>
    <g id="ITEM_5_ICON" transform="translate(-34, 40)" data-icon-size="68" stroke-dasharray="6 4">
      <g transform="translate(-7.005714285714289,-7.005714285714289) scale(2.562857142857143)">
        <path d="M3.2359 5.89697L6.00835 8.66735C6.26317 8.92198 6.66069 8.92198 6.91551 8.66735L8.66867 6.91549C8.92349 6.66086 8.92349 6.26364 8.66867 6.00901L5.89623 3.23862C5.53948 2.88214 5.71276 2.28121 6.19182 2.15899C7.96537 1.72102 9.92239 2.18954 11.329 3.54418C12.8928 5.05575 13.3617 7.28456 12.7243 9.22843L22.7212 19.2909C24.6418 18.6406 26.8528 19.0802 28.387 20.6132C29.7936 22.0188 30.2828 24.0049 29.8445 25.8178C29.7222 26.2864 29.1208 26.4595 28.7641 26.103L25.9917 23.3326C25.7368 23.078 25.3393 23.078 25.0845 23.3326L23.3313 25.0845C23.0765 25.3391 23.0765 25.7364 23.3313 25.991L26.1038 28.7614C26.4605 29.1179 26.2872 29.7188 25.8082 29.841C24.0346 30.279 22.0776 29.8105 20.671 28.4558C19.1243 26.9608 18.6487 24.7642 19.2552 22.8355L9.2093 12.7321C7.30512 13.3486 5.12872 12.9014 3.61304 11.3868C2.20643 9.98124 1.71717 7.99512 2.15546 6.18215C2.27778 5.71363 2.87915 5.54048 3.2359 5.89697Z" fill="#B4ACBC"/>
      </g>
    </g>
    <text id="ITEM_5_HEAD" x="0.0" y="138.0" text-anchor="middle" font-size="44" font-weight="800" fill="var(--accent-3)" data-bg-id="ITEM_5_BG" fill-opacity="1.0" style="font-size: 30px; font-family: Inter, Segoe UI, Kalam, Roboto, Helvetica, Arial, sans-serif; font-weight: 700; letter-spacing:-0.4px;" data-final-font-size="30">
      <tspan x="0.0" dy="42.25px">Problem Solving</tspan>
    </text>
    <rect id="ITEM_5_HEAD_FRAME" x="-165.0" y="138" width="330.0" height="68" fill="none"/>
    <text id="ITEM_5_BODY" x="0.0" y="206.0" text-anchor="middle" font-size="27" fill="var(--primary-text)" data-bg-id="ITEM_5_BG" style="font-size: 26px; font-family: Inter, Segoe UI, Kalam, Roboto, Helvetica, Arial, sans-serif; font-weight: 400;" data-final-font-size="26">
      <tspan x="0.0" dy="33.66px">Questions regarding</tspan>
      <tspan x="0.0" dy="29.90px">reliability and specific</tspan>
      <tspan x="0.0" dy="29.90px">technical durability issues</tspan>
    </text>
    <rect id="ITEM_5_BODY_FRAME" x="-190.0" y="206" width="380" height="154" fill="none"/>
  </g>
</svg>
