<?xml version='1.0' encoding='utf-8'?>
<svg xmlns="http://www.w3.org/2000/svg" width="1920" height="1080" viewBox="0 0 1920 1080" data-theme="light">
  <style>
        @font-face {
            font-family: 'Inter';
            src: url('assets/fonts/Inter-Regular.ttf') format('truetype');
            font-weight: 400;
            font-style: normal;
            font-display: swap;
        }
        @font-face {
            font-family: 'Inter';
            src: url('assets/fonts/Inter-Bold.ttf') format('truetype');
            font-weight: 600;
            font-style: normal;
            font-display: swap;
        }
        @font-face {
            font-family: 'Inter';
            src: url('assets/fonts/Inter-Bold.ttf') format('truetype');
            font-weight: 800;
            font-style: normal;
            font-display: swap;
        }
        
:root {
    --background: #f8fafc;
    --panel: #ffffff;
    --primary-text: #0f172a;
    --muted-text: #64748b;
    --inverse-text: #ffffff;
    --border: #e2e8f0;
    --shadow-color: #000000;
    --icon-pad-bg: #1e293b;
    --art-glow: #0891b2;
    --art-glow-opacity: 0.10;
    --art-sheen: #ffffff;
    --art-sheen-opacity: 0.34;
    --art-shadow: #0f172a;
    --art-shadow-opacity: 0.14;
    --art-muted-line: #94a3b8;
    --art-panel-tint: #f1f5f9;
    --font-family: 'Inter', 'Segoe UI', 'Kalam', Roboto, Helvetica, Arial, sans-serif;
    --radius-xl: 16px;
    --font-family-headline: 'Inter', 'Segoe UI', 'Kalam', Roboto, Helvetica, Arial, sans-serif;
    --font-family-body: 'Inter', 'Segoe UI', 'Kalam', Roboto, Helvetica, Arial, sans-serif;
    --font-heading: 'Inter', 'Segoe UI', 'Kalam', Roboto, Helvetica, Arial, sans-serif;
    --font-body: 'Inter', 'Segoe UI', 'Kalam', Roboto, Helvetica, Arial, sans-serif;
    --font-size-h1: 56px;
    --font-size-h2: 40px;
    --font-size-h3: 28px;
    --font-size-body: 24px;
    --font-size-caption: 18px;
    --secondary-text: var(--muted-text);
    --panel-border: var(--border);
    --font-weight-normal: 400;
    --font-weight-medium: 500;
    --font-weight-semibold: 600;
    --font-weight-bold: 700;
    --spacing-gutter-pct: 0.07;
    --spacing-top-pct: 0.15;
    --spacing-bottom-pct: 0.07;
    --spacing-title-y-pct: 0.055;
    --accent-1: #0891b2;
    --accent-2: #0284c7;
    --accent-3: #2563eb;
    --accent-4: #4f46e5;
    --accent-5: #7c3aed;
    --accent-6: #0d9488;
}
:root[data-theme="dark"] {
    --background: #0f172a;
    --panel: #1e293b;
    --primary-text: #f1f5f9;
    --muted-text: #94a3b8;
    --inverse-text: #0f172a;
    --border: #334155;
    --shadow-color: #000000;
    --icon-pad-bg: #1e293b;
    --art-glow: #7dd3fc;
    --art-glow-opacity: 0.18;
    --art-sheen: #ffffff;
    --art-sheen-opacity: 0.18;
    --art-shadow: #000000;
    --art-shadow-opacity: 0.28;
    --art-muted-line: #64748b;
    --art-panel-tint: #1e293b;
    --accent-1: #22d3ee;
    --accent-2: #38bdf8;
    --accent-3: #60a5fa;
    --accent-4: #818cf8;
    --accent-5: #a78bfa;
    --accent-6: #2dd4bf;
}
:root[data-theme="light"] {
    --background: #f8fafc;
    --panel: #ffffff;
    --primary-text: #0f172a;
    --muted-text: #64748b;
    --inverse-text: #ffffff;
    --border: #e2e8f0;
    --shadow-color: #000000;
    --icon-pad-bg: #1e293b;
    --art-glow: #0891b2;
    --art-glow-opacity: 0.10;
    --art-sheen: #ffffff;
    --art-sheen-opacity: 0.34;
    --art-shadow: #0f172a;
    --art-shadow-opacity: 0.14;
    --art-muted-line: #94a3b8;
    --art-panel-tint: #f1f5f9;
    --accent-1: #0891b2;
    --accent-2: #0284c7;
    --accent-3: #2563eb;
    --accent-4: #4f46e5;
    --accent-5: #7c3aed;
    --accent-6: #0d9488;
}</style>
  <rect x="0" y="0" width="1.92E+3" height="1.08E+3" fill="#252a34" stroke="none" id="programmatic_background"/>
  <line id="HEADER_DECOR" x1="960.0" x2="1080.0" y1="85.0" y2="85.0" stroke="var(--accent-1)" stroke-width="6" stroke-linecap="round"/>
  <defs>
    <pattern id="svg6c580239-napkin-hatch" patternUnits="userSpaceOnUse" width="12" height="12">
      <path d="M -3 12 L 12 -3 M 0 15 L 15 0" fill="none" stroke="var(--primary-text)" stroke-width="1" stroke-opacity="0.05"/>
    </pattern>
    <filter id="svg6c580239-shadow" x="-30%" y="-30%" width="160%" height="160%">
      <feDropShadow dx="0" dy="2" stdDeviation="3" flood-color="#000000" flood-opacity="0.08"/>
      <feDropShadow dx="0" dy="6" stdDeviation="10" flood-color="#000000" flood-opacity="0.12"/>
    </filter>
    <marker id="svg6c580239-arrowhead" markerWidth="10" markerHeight="10" refX="9" refY="5" orient="auto">
      <path d="M 0 0 L 10 5 L 0 10 Z" fill="var(--accent-1)"/>
    </marker>
    <filter id="svg6c580239-text-glow" x="-20%" y="-20%" width="140%" height="140%">
      <feDropShadow dx="0" dy="0" stdDeviation="2" flood-color="#000000" flood-opacity="0.4"/>
    </filter>
    <linearGradient id="svg6c580239-beam-grad" x1="0%" y1="0%" x2="100%" y2="0%">
      <stop offset="0%" stop-color="var(--accent-3)" stop-opacity="0.6"/>
      <stop offset="100%" stop-color="var(--accent-3)" stop-opacity="0"/>
    </linearGradient>
    <linearGradient id="svg6c580239-lantern-grad" x1="0%" y1="0%" x2="0%" y2="100%">
      <stop offset="0%" stop-color="var(--accent-3)"/>
      <stop offset="100%" stop-color="var(--accent-3)"/>
    </linearGradient>
    <linearGradient id="svg6c580239-level-grad-5" x1="0%" y1="0%" x2="0%" y2="100%">
      <stop offset="0%" stop-color="var(--accent-7)"/>
      <stop offset="100%" stop-color="var(--accent-7)"/>
    </linearGradient>
    <linearGradient id="svg6c580239-level-grad-4" x1="0%" y1="0%" x2="0%" y2="100%">
      <stop offset="0%" stop-color="var(--accent-1)"/>
      <stop offset="100%" stop-color="var(--accent-1)"/>
    </linearGradient>
    <linearGradient id="svg6c580239-level-grad-3" x1="0%" y1="0%" x2="0%" y2="100%">
      <stop offset="0%" stop-color="var(--accent-4)"/>
      <stop offset="100%" stop-color="var(--accent-4)"/>
    </linearGradient>
    <linearGradient id="svg6c580239-level-grad-2" x1="0%" y1="0%" x2="0%" y2="100%">
      <stop offset="0%" stop-color="var(--accent-2)"/>
      <stop offset="100%" stop-color="var(--accent-2)"/>
    </linearGradient>
    <linearGradient id="svg6c580239-level-grad-1" x1="0%" y1="0%" x2="0%" y2="100%">
      <stop offset="0%" stop-color="var(--accent-6)"/>
      <stop offset="100%" stop-color="var(--accent-6)"/>
    </linearGradient>
    <radialGradient id="svg6c580239-universal-edge-vignette" cx="50%" cy="50%" r="72%">
      <stop offset="0%" stop-color="var(--background)" stop-opacity="0"/>
      <stop offset="72%" stop-color="var(--background)" stop-opacity="0.12"/>
      <stop offset="100%" stop-color="var(--primary-text)" stop-opacity="0.08"/>
    </radialGradient>
    <linearGradient id="svg6c580239-universal-surface-sheen" x1="0%" y1="0%" x2="100%" y2="100%">
      <stop offset="0%" stop-color="var(--art-sheen)" stop-opacity="var(--art-sheen-opacity)"/>
      <stop offset="46%" stop-color="var(--art-sheen)" stop-opacity="0.035"/>
      <stop offset="100%" stop-color="var(--art-panel-tint)" stop-opacity="0.14"/>
    </linearGradient>
    <radialGradient id="svg6c580239-universal-icon-aura" cx="50%" cy="42%" r="64%">
      <stop offset="0%" stop-color="var(--art-glow)" stop-opacity="var(--art-glow-opacity)"/>
      <stop offset="100%" stop-color="var(--background)" stop-opacity="0"/>
    </radialGradient>
  </defs>
  <rect width="100%" height="100%" fill="var(--background)" id="CANVAS_BG"/>
  <rect width="100%" height="100%" fill="url(#svg6c580239-napkin-hatch)"/>
  <rect id="UNIVERSAL_EDGE_VIGNETTE" width="100%" height="100%" fill="url(#svg6c580239-universal-edge-vignette)" opacity="0.62"/>
  <text id="TITLE" x="960.0" y="59" font-size="56" font-weight="700" fill="#0f172a" text-anchor="middle" style="font-size: 60px; font-family: Inter, Segoe UI, Kalam, Roboto, Helvetica, Arial, sans-serif; font-weight: 700; letter-spacing:-1.2px;" data-final-font-size="60">
    <tspan x="960.0" dy="68.00px">Vehicle Compatibility Factors for Car Seats</tspan>
  </text>
  <rect id="TITLE_FRAME" x="134" y="25" width="1652" height="70" fill="none"/>
  <g id="DIAGRAM_MAIN" transform="translate(0, 100)">
    <rect x="880.0" y="120" width="160" height="80" fill="url(#svg6c580239-lantern-grad)" filter="url(#svg6c580239-shadow)" stroke="var(--primary-text)" stroke-width="2"/>
    <path d="M 860.0 120 Q 960 60 1060.0 120 Z" fill="var(--primary-text)"/>
    <path d="M 1040.0 160 L 1720 20 L 1720 320 Z" fill="url(#svg6c580239-beam-grad)" opacity="0.24"/>
    <path d="M 1040 160 L 1718 92" stroke="var(--inverse-text)" stroke-width="2" stroke-opacity="0.12"/>
    <path d="M 1040 160 L 1718 250" stroke="var(--inverse-text)" stroke-width="2" stroke-opacity="0.08"/>
    <path d="M 1040 160 L 1718 92" stroke="var(--inverse-text)" stroke-width="2" stroke-opacity="0.12"/>
    <path d="M 1040 160 L 1718 250" stroke="var(--inverse-text)" stroke-width="2" stroke-opacity="0.08"/>
    <path d="M 1040 160 L 1718 92" stroke="var(--inverse-text)" stroke-width="2" stroke-opacity="0.12"/>
    <path d="M 1040 160 L 1718 250" stroke="var(--inverse-text)" stroke-width="2" stroke-opacity="0.08"/>
    <path d="M 1040 160 L 1718 92" stroke="var(--inverse-text)" stroke-width="2" stroke-opacity="0.12"/>
    <path d="M 1040 160 L 1718 250" stroke="var(--inverse-text)" stroke-width="2" stroke-opacity="0.08"/>
    <path d="M 1040 160 L 1718 92" stroke="var(--inverse-text)" stroke-width="2" stroke-opacity="0.12"/>
    <path d="M 1040 160 L 1718 250" stroke="var(--inverse-text)" stroke-width="2" stroke-opacity="0.08"/>
    <path d="M 1040 160 L 1718 92" stroke="var(--inverse-text)" stroke-width="2" stroke-opacity="0.12"/>
    <path d="M 1040 160 L 1718 250" stroke="var(--inverse-text)" stroke-width="2" stroke-opacity="0.08"/>
    <path d="M 1040 160 L 1718 92" stroke="var(--inverse-text)" stroke-width="2" stroke-opacity="0.12"/>
    <path d="M 1040 160 L 1718 250" stroke="var(--inverse-text)" stroke-width="2" stroke-opacity="0.08"/>
    <path d="M 1040 160 L 1718 92" stroke="var(--inverse-text)" stroke-width="2" stroke-opacity="0.12"/>
    <path d="M 1040 160 L 1718 250" stroke="var(--inverse-text)" stroke-width="2" stroke-opacity="0.08"/>
    <path d="M 1040 160 L 1718 92" stroke="var(--inverse-text)" stroke-width="2" stroke-opacity="0.12"/>
    <path d="M 1040 160 L 1718 250" stroke="var(--inverse-text)" stroke-width="2" stroke-opacity="0.08"/>
    <path d="M 1040 160 L 1718 92" stroke="var(--inverse-text)" stroke-width="2" stroke-opacity="0.12"/>
    <path d="M 1040 160 L 1718 250" stroke="var(--inverse-text)" stroke-width="2" stroke-opacity="0.08"/>
    <path d="M 1040 160 L 1718 92" stroke="var(--inverse-text)" stroke-width="2" stroke-opacity="0.12"/>
    <path d="M 1040 160 L 1718 250" stroke="var(--inverse-text)" stroke-width="2" stroke-opacity="0.08"/>
    <path d="M 1040 160 L 1718 92" stroke="var(--inverse-text)" stroke-width="2" stroke-opacity="0.12"/>
    <path d="M 1040 160 L 1718 250" stroke="var(--inverse-text)" stroke-width="2" stroke-opacity="0.08"/>
    <path d="M 1040 160 L 1718 92" stroke="var(--inverse-text)" stroke-width="2" stroke-opacity="0.12"/>
    <path d="M 1040 160 L 1718 250" stroke="var(--inverse-text)" stroke-width="2" stroke-opacity="0.08"/>
    <path d="M 1040 160 L 1718 92" stroke="var(--inverse-text)" stroke-width="2" stroke-opacity="0.12"/>
    <path d="M 1040 160 L 1718 250" stroke="var(--inverse-text)" stroke-width="2" stroke-opacity="0.08"/>
    <path d="M 1040 160 L 1718 92" stroke="var(--inverse-text)" stroke-width="2" stroke-opacity="0.12"/>
    <path d="M 1040 160 L 1718 250" stroke="var(--inverse-text)" stroke-width="2" stroke-opacity="0.08"/>
    <path d="M 1040 160 L 1718 92" stroke="var(--inverse-text)" stroke-width="2" stroke-opacity="0.12"/>
    <path d="M 1040 160 L 1718 250" stroke="var(--inverse-text)" stroke-width="2" stroke-opacity="0.08"/>
    <path d="M 1040 160 L 1718 92" stroke="var(--inverse-text)" stroke-width="2" stroke-opacity="0.12"/>
    <path d="M 1040 160 L 1718 250" stroke="var(--inverse-text)" stroke-width="2" stroke-opacity="0.08"/>
    <path d="M 1040 160 L 1718 92" stroke="var(--inverse-text)" stroke-width="2" stroke-opacity="0.12"/>
    <path d="M 1040 160 L 1718 250" stroke="var(--inverse-text)" stroke-width="2" stroke-opacity="0.08"/>
    <path d="M 1040 160 L 1718 92" stroke="var(--inverse-text)" stroke-width="2" stroke-opacity="0.12"/>
    <path d="M 1040 160 L 1718 250" stroke="var(--inverse-text)" stroke-width="2" stroke-opacity="0.08"/>
    <path d="M 1040 160 L 1718 92" stroke="var(--inverse-text)" stroke-width="2" stroke-opacity="0.12"/>
    <path d="M 1040 160 L 1718 250" stroke="var(--inverse-text)" stroke-width="2" stroke-opacity="0.08"/>
    <path d="M 1040 160 L 1718 92" stroke="var(--inverse-text)" stroke-width="2" stroke-opacity="0.12"/>
    <path d="M 1040 160 L 1718 250" stroke="var(--inverse-text)" stroke-width="2" stroke-opacity="0.08"/>
    <path d="M 1040 160 L 1718 92" stroke="var(--inverse-text)" stroke-width="2" stroke-opacity="0.12"/>
    <path d="M 1040 160 L 1718 250" stroke="var(--inverse-text)" stroke-width="2" stroke-opacity="0.08"/>
    <path d="M 1040 160 L 1718 92" stroke="var(--inverse-text)" stroke-width="2" stroke-opacity="0.12"/>
    <path d="M 1040 160 L 1718 250" stroke="var(--inverse-text)" stroke-width="2" stroke-opacity="0.08"/>
    <path d="M 1040 160 L 1718 92" stroke="var(--inverse-text)" stroke-width="2" stroke-opacity="0.12"/>
    <path d="M 1040 160 L 1718 250" stroke="var(--inverse-text)" stroke-width="2" stroke-opacity="0.08"/>
    <path d="M 1040 160 L 1718 92" stroke="var(--inverse-text)" stroke-width="2" stroke-opacity="0.12"/>
    <path d="M 1040 160 L 1718 250" stroke="var(--inverse-text)" stroke-width="2" stroke-opacity="0.08"/>
    <path d="M 1040 160 L 1718 92" stroke="var(--inverse-text)" stroke-width="2" stroke-opacity="0.12"/>
    <path d="M 1040 160 L 1718 250" stroke="var(--inverse-text)" stroke-width="2" stroke-opacity="0.08"/>
    <path d="M 1040 160 L 1718 92" stroke="var(--inverse-text)" stroke-width="2" stroke-opacity="0.12"/>
    <path d="M 1040 160 L 1718 250" stroke="var(--inverse-text)" stroke-width="2" stroke-opacity="0.08"/>
    <path d="M 1040 160 L 1718 92" stroke="var(--inverse-text)" stroke-width="2" stroke-opacity="0.12"/>
    <path d="M 1040 160 L 1718 250" stroke="var(--inverse-text)" stroke-width="2" stroke-opacity="0.08"/>
    <path d="M 1040 160 L 1718 92" stroke="var(--inverse-text)" stroke-width="2" stroke-opacity="0.12"/>
    <path d="M 1040 160 L 1718 250" stroke="var(--inverse-text)" stroke-width="2" stroke-opacity="0.08"/>
    <path id="ITEM_5_BG" d="M 870.0 200.0 L 1050.0 200.0 L 1062.0 322.0 L 858.0 322.0 Z" fill="var(--accent-3)" filter="url(#svg6c580239-shadow)" stroke="var(--background)" stroke-width="2" fill-opacity="1.0"/>
    <path d="M 870 200 L 1050 200 L 1110 810 L 810 810 Z" fill="url(#svg6c580239-universal-surface-sheen)" opacity="0.06"/>
    <path d="M 870 200 L 1050 200 L 1110 810 L 810 810 Z" fill="url(#svg6c580239-universal-surface-sheen)" opacity="0.06"/>
    <path d="M 870 200 L 1050 200 L 1110 810 L 810 810 Z" fill="url(#svg6c580239-universal-surface-sheen)" opacity="0.06"/>
    <path d="M 870 200 L 1050 200 L 1110 810 L 810 810 Z" fill="url(#svg6c580239-universal-surface-sheen)" opacity="0.06"/>
    <path d="M 870 200 L 1050 200 L 1110 810 L 810 810 Z" fill="url(#svg6c580239-universal-surface-sheen)" opacity="0.06"/>
    <path d="M 870 200 L 1050 200 L 1110 810 L 810 810 Z" fill="url(#svg6c580239-universal-surface-sheen)" opacity="0.06"/>
    <path d="M 870 200 L 1050 200 L 1110 810 L 810 810 Z" fill="url(#svg6c580239-universal-surface-sheen)" opacity="0.06"/>
    <path d="M 870 200 L 1050 200 L 1110 810 L 810 810 Z" fill="url(#svg6c580239-universal-surface-sheen)" opacity="0.06"/>
    <path d="M 870 200 L 1050 200 L 1110 810 L 810 810 Z" fill="url(#svg6c580239-universal-surface-sheen)" opacity="0.06"/>
    <path d="M 870 200 L 1050 200 L 1110 810 L 810 810 Z" fill="url(#svg6c580239-universal-surface-sheen)" opacity="0.06"/>
    <path d="M 870 200 L 1050 200 L 1110 810 L 810 810 Z" fill="url(#svg6c580239-universal-surface-sheen)" opacity="0.06"/>
    <path d="M 870 200 L 1050 200 L 1110 810 L 810 810 Z" fill="url(#svg6c580239-universal-surface-sheen)" opacity="0.06"/>
    <path d="M 870 200 L 1050 200 L 1110 810 L 810 810 Z" fill="url(#svg6c580239-universal-surface-sheen)" opacity="0.06"/>
    <path d="M 870 200 L 1050 200 L 1110 810 L 810 810 Z" fill="url(#svg6c580239-universal-surface-sheen)" opacity="0.06"/>
    <path d="M 870 200 L 1050 200 L 1110 810 L 810 810 Z" fill="url(#svg6c580239-universal-surface-sheen)" opacity="0.06"/>
    <path d="M 870 200 L 1050 200 L 1110 810 L 810 810 Z" fill="url(#svg6c580239-universal-surface-sheen)" opacity="0.06"/>
    <path d="M 870 200 L 1050 200 L 1110 810 L 810 810 Z" fill="url(#svg6c580239-universal-surface-sheen)" opacity="0.06"/>
    <path d="M 870 200 L 1050 200 L 1110 810 L 810 810 Z" fill="url(#svg6c580239-universal-surface-sheen)" opacity="0.06"/>
    <path d="M 870 200 L 1050 200 L 1110 810 L 810 810 Z" fill="url(#svg6c580239-universal-surface-sheen)" opacity="0.06"/>
    <path d="M 870 200 L 1050 200 L 1110 810 L 810 810 Z" fill="url(#svg6c580239-universal-surface-sheen)" opacity="0.06"/>
    <path d="M 870 200 L 1050 200 L 1110 810 L 810 810 Z" fill="url(#svg6c580239-universal-surface-sheen)" opacity="0.06"/>
    <path d="M 870 200 L 1050 200 L 1110 810 L 810 810 Z" fill="url(#svg6c580239-universal-surface-sheen)" opacity="0.06"/>
    <path d="M 870 200 L 1050 200 L 1110 810 L 810 810 Z" fill="url(#svg6c580239-universal-surface-sheen)" opacity="0.06"/>
    <path d="M 870 200 L 1050 200 L 1110 810 L 810 810 Z" fill="url(#svg6c580239-universal-surface-sheen)" opacity="0.06"/>
    <path d="M 870 200 L 1050 200 L 1110 810 L 810 810 Z" fill="url(#svg6c580239-universal-surface-sheen)" opacity="0.06"/>
    <path d="M 870 200 L 1050 200 L 1110 810 L 810 810 Z" fill="url(#svg6c580239-universal-surface-sheen)" opacity="0.06"/>
    <path d="M 870 200 L 1050 200 L 1110 810 L 810 810 Z" fill="url(#svg6c580239-universal-surface-sheen)" opacity="0.06"/>
    <path d="M 870 200 L 1050 200 L 1110 810 L 810 810 Z" fill="url(#svg6c580239-universal-surface-sheen)" opacity="0.06"/>
    <path d="M 870 200 L 1050 200 L 1110 810 L 810 810 Z" fill="url(#svg6c580239-universal-surface-sheen)" opacity="0.06"/>
    <line x1="890.0" y1="210.0" x2="878.0" y2="312.0" stroke="var(--background)" stroke-width="3" stroke-opacity="0.3"/>
    <circle cx="960" cy="261.0" r="43" fill="var(--icon-pad-bg)" stroke="none"/>
    <circle id="ITEM_5_RING" cx="960" cy="261.0" r="36" fill="none" stroke="var(--accent-2)" stroke-width="3" filter="url(#svg6c580239-shadow)" stroke-dasharray="6 4"/>
    <circle id="ITEM_5_PAD" cx="960.00" cy="261.00" r="44.80" fill="var(--icon-pad-bg)" stroke="var(--primary-text)" stroke-width="2" opacity="0.9"/>
    <circle id="ITEM_5_PAD_INNER" cx="960.00" cy="261.00" r="34.94" fill="var(--accent-3)" fill-opacity="0.22"/>
    <g id="ITEM_5_ICON" transform="translate(932.0, 233.0)" data-icon-size="56">
      <g transform="translate(-10.558896551724132,-9.05268965517241) scale(3.2132413793103445)" vector-effect="non-scaling-stroke" stroke-width="2.38" stroke-linecap="round" stroke-linejoin="round" stroke-opacity="1.0">
        <path d="M15 4.00092C18.1143 4.01003 19.7653 4.10846 20.8284 5.17156C22 6.34313 22 8.22875 22 12C22 15.7712 22 17.6568 20.8284 18.8284C19.6569 20 17.7712 20 14 20H10C6.22876 20 4.34315 20 3.17157 18.8284C2 17.6568 2 15.7712 2 12C2 8.22875 2 6.34313 3.17157 5.17156C4.23467 4.10846 5.8857 4.01003 9 4.00092" stroke="#f1f5f9" vector-effect="non-scaling-stroke" fill="none"/>
        <path d="M12 5L12 3" stroke="#f1f5f9" vector-effect="non-scaling-stroke" fill="none"/>
        <path d="M8 10.5H16" stroke="#f1f5f9" vector-effect="non-scaling-stroke" fill="none"/>
        <path d="M8 14H13.5" stroke="#f1f5f9" vector-effect="non-scaling-stroke" fill="none"/>
      </g>
    </g>
    <line id="ITEM_5_LINE" x1="1056.0" y1="261.0" x2="1136.0" y2="261.0" stroke="var(--accent-3)" stroke-width="3" stroke-dasharray="6 4" stroke-opacity="1.0"/>
    <circle id="ITEM_5_DOT" cx="1136.0" cy="261.0" r="5" fill="var(--accent-3)" fill-opacity="1.0"/>
    <rect id="ITEM_5_LABEL_BG" x="1146.0" y="205.0" width="420.0" height="207.0" rx="18" fill="var(--panel)" fill-opacity="0.88" stroke="var(--accent-5)" stroke-opacity="0.32" stroke-width="1.5"/>
    <text id="ITEM_5_HEAD" x="1166.0" y="221.0" font-weight="bold" font-size="34" fill="var(--accent-3)" text-anchor="start" data-bg-id="ITEM_5_LABEL_BG" fill-opacity="1.0" style="font-size: 30px; font-family: Inter, Segoe UI, Kalam, Roboto, Helvetica, Arial, sans-serif; font-weight: 700; letter-spacing:-0.4px;" data-final-font-size="30">
      <tspan x="1166.0" dy="33.25px">Base Dimensions</tspan>
    </text>
    <rect id="ITEM_5_HEAD_FRAME" x="1166.0" y="221.0" width="220" height="50" fill="none"/>
    <text id="ITEM_5_BODY" x="1166.0" y="276.0" font-size="20" fill="var(--primary-text)" text-anchor="start" data-bg-id="ITEM_5_LABEL_BG" style="font-size: 26px; font-family: Inter, Segoe UI, Kalam, Roboto, Helvetica, Arial, sans-serif; font-weight: 400;" data-final-font-size="26">
      <tspan x="1166.0" dy="32.84px">Physical footprint of the car</tspan>
      <tspan x="1166.0" dy="29.90px">seat base unit</tspan>
    </text>
    <rect id="ITEM_5_BODY_FRAME" x="1166" y="276.0" width="380" height="120" fill="none"/>
    <path id="ITEM_4_BG" d="M 858.0 322.0 L 1062.0 322.0 L 1074.0 444.0 L 846.0 444.0 Z" fill="var(--accent-2)" filter="url(#svg6c580239-shadow)" stroke="var(--background)" stroke-width="2" fill-opacity="1.0"/>
    <line x1="878.0" y1="332.0" x2="866.0" y2="434.0" stroke="var(--background)" stroke-width="3" stroke-opacity="0.3"/>
    <circle cx="960" cy="383.0" r="43" fill="var(--icon-pad-bg)" stroke="none"/>
    <circle id="ITEM_4_RING" cx="960" cy="383.0" r="36" fill="none" stroke="var(--accent-1)" stroke-width="3" filter="url(#svg6c580239-shadow)" stroke-dasharray="6 4"/>
    <circle id="ITEM_4_PAD" cx="960.00" cy="383.00" r="44.80" fill="var(--icon-pad-bg)" stroke="var(--primary-text)" stroke-width="2" opacity="0.9"/>
    <circle id="ITEM_4_PAD_INNER" cx="960.00" cy="383.00" r="34.94" fill="var(--accent-2)" fill-opacity="0.22"/>
    <g id="ITEM_4_ICON" transform="translate(932.0, 355.0)" data-icon-size="56">
      <g transform="translate(-6.9439999999999955,-6.943999999999997) scale(0.27299999999999996)" vector-effect="non-scaling-stroke" stroke-width="2.38" stroke-linecap="round" stroke-linejoin="round" stroke-opacity="1.0">
        <line x1="144" y1="128" x2="184" y2="128" fill="none" stroke="#f1f5f9" vector-effect="non-scaling-stroke"/>
        <rect x="104" y="80" width="80" height="96" rx="8" fill="none" stroke="#f1f5f9" vector-effect="non-scaling-stroke"/>
        <line x1="104" y1="88" x2="8" y2="88" fill="none" stroke="#f1f5f9" vector-effect="non-scaling-stroke"/>
        <line x1="104" y1="168" x2="8" y2="168" fill="none" stroke="#f1f5f9" vector-effect="non-scaling-stroke"/>
        <line x1="248" y1="88" x2="184" y2="88" fill="none" stroke="#f1f5f9" vector-effect="non-scaling-stroke"/>
        <line x1="248" y1="168" x2="184" y2="168" fill="none" stroke="#f1f5f9" vector-effect="non-scaling-stroke"/>
        <line x1="56" y1="80" x2="56" y2="176" fill="none" stroke="#f1f5f9" vector-effect="non-scaling-stroke"/>
      </g>
    </g>
    <line id="ITEM_4_LINE" x1="852.0" y1="383.0" x2="772.0" y2="383.0" stroke="var(--accent-2)" stroke-width="3" stroke-dasharray="6 4" stroke-opacity="1.0"/>
    <circle id="ITEM_4_DOT" cx="772.0" cy="383.0" r="5" fill="var(--accent-2)" fill-opacity="1.0"/>
    <rect id="ITEM_4_LABEL_BG" x="342.0" y="327.0" width="420.0" height="207.0" rx="18" fill="var(--panel)" fill-opacity="0.88" stroke="var(--accent-4)" stroke-opacity="0.32" stroke-width="1.5"/>
    <text id="ITEM_4_HEAD" x="742.0" y="343.0" font-weight="bold" font-size="34" fill="var(--primary-text)" text-anchor="end" data-bg-id="ITEM_4_LABEL_BG" fill-opacity="1.0" style="font-size: 30px; font-family: Inter, Segoe UI, Kalam, Roboto, Helvetica, Arial, sans-serif; font-weight: 700; letter-spacing:-0.4px;" data-final-font-size="30">
      <tspan x="742.0" dy="33.25px">Belt Geometry</tspan>
    </text>
    <rect id="ITEM_4_HEAD_FRAME" x="522.0" y="343.0" width="220" height="50" fill="none"/>
    <text id="ITEM_4_BODY" x="742.0" y="398.0" font-size="20" fill="var(--primary-text)" text-anchor="end" data-bg-id="ITEM_4_LABEL_BG" style="font-size: 26px; font-family: Inter, Segoe UI, Kalam, Roboto, Helvetica, Arial, sans-serif; font-weight: 400;" data-final-font-size="26">
      <tspan x="742.0" dy="32.84px">Specific paths and locking</tspan>
      <tspan x="742.0" dy="29.90px">mechanisms of seatbelts</tspan>
    </text>
    <rect id="ITEM_4_BODY_FRAME" x="362" y="398.0" width="380" height="120" fill="none"/>
    <path id="ITEM_3_BG" d="M 846.0 444.0 L 1074.0 444.0 L 1086.0 566.0 L 834.0 566.0 Z" fill="var(--accent-1)" filter="url(#svg6c580239-shadow)" stroke="var(--background)" stroke-width="2" fill-opacity="1.0"/>
    <line x1="866.0" y1="454.0" x2="854.0" y2="556.0" stroke="var(--background)" stroke-width="3" stroke-opacity="0.3"/>
    <circle cx="960" cy="505.0" r="43" fill="var(--icon-pad-bg)" stroke="none"/>
    <circle id="ITEM_3_RING" cx="960" cy="505.0" r="36" fill="none" stroke="var(--accent-5)" stroke-width="3" filter="url(#svg6c580239-shadow)" stroke-dasharray="6 4"/>
    <circle id="ITEM_3_PAD" cx="960.00" cy="505.00" r="44.80" fill="var(--icon-pad-bg)" stroke="var(--primary-text)" stroke-width="2" opacity="0.9"/>
    <circle id="ITEM_3_PAD_INNER" cx="960.00" cy="505.00" r="34.94" fill="var(--accent-1)" fill-opacity="0.22"/>
    <g id="ITEM_3_ICON" transform="translate(932.0, 477.0)" data-icon-size="56">
      <g transform="translate(-6.9439999999999955,-6.943999999999992) scale(4.991999999999999)" vector-effect="non-scaling-stroke" stroke-width="2.38" stroke-linecap="round" stroke-linejoin="round" stroke-opacity="1.0">
        <path id="Vector" stroke="#f1f5f9" d="M4 10.5 0.5 7 4 3.5" vector-effect="non-scaling-stroke" fill="none"/>
        <path id="Vector_2" stroke="#f1f5f9" d="M10 10.5 13.5 7 10 3.5" vector-effect="non-scaling-stroke" fill="none"/>
      </g>
    </g>
    <line id="ITEM_3_LINE" x1="1080.0" y1="505.0" x2="1160.0" y2="505.0" stroke="var(--accent-1)" stroke-width="3" stroke-dasharray="6 4" stroke-opacity="1.0"/>
    <circle id="ITEM_3_DOT" cx="1160.0" cy="505.0" r="5" fill="var(--accent-1)" fill-opacity="1.0"/>
    <rect id="ITEM_3_LABEL_BG" x="1170.0" y="449.0" width="420.0" height="207.0" rx="18" fill="var(--panel)" fill-opacity="0.88" stroke="var(--accent-3)" stroke-opacity="0.32" stroke-width="1.5"/>
    <text id="ITEM_3_HEAD" x="1190.0" y="465.0" font-weight="bold" font-size="34" fill="var(--primary-text)" text-anchor="start" data-bg-id="ITEM_3_LABEL_BG" fill-opacity="1.0" style="font-size: 30px; font-family: Inter, Segoe UI, Kalam, Roboto, Helvetica, Arial, sans-serif; font-weight: 700; letter-spacing:-0.4px;" data-final-font-size="30">
      <tspan x="1190.0" dy="33.25px">Anchor Points</tspan>
    </text>
    <rect id="ITEM_3_HEAD_FRAME" x="1190.0" y="465.0" width="220" height="50" fill="none"/>
    <text id="ITEM_3_BODY" x="1190.0" y="520.0" font-size="20" fill="var(--primary-text)" text-anchor="start" data-bg-id="ITEM_3_LABEL_BG" style="font-size: 26px; font-family: Inter, Segoe UI, Kalam, Roboto, Helvetica, Arial, sans-serif; font-weight: 400;" data-final-font-size="26">
      <tspan x="1190.0" dy="32.84px">Availability of ISOFIX</tspan>
      <tspan x="1190.0" dy="29.90px">or LATCH hardware systems</tspan>
    </text>
    <rect id="ITEM_3_BODY_FRAME" x="1190" y="520.0" width="380" height="120" fill="none"/>
    <path id="ITEM_2_BG" d="M 834.0 566.0 L 1086.0 566.0 L 1098.0 688.0 L 822.0 688.0 Z" fill="var(--accent-6)" filter="url(#svg6c580239-shadow)" stroke="var(--background)" stroke-width="2" fill-opacity="1.0"/>
    <line x1="854.0" y1="576.0" x2="842.0" y2="678.0" stroke="var(--background)" stroke-width="3" stroke-opacity="0.3"/>
    <circle cx="960" cy="627.0" r="43" fill="var(--icon-pad-bg)" stroke="none"/>
    <circle id="ITEM_2_RING" cx="960" cy="627.0" r="36" fill="none" stroke="var(--accent-4)" stroke-width="3" filter="url(#svg6c580239-shadow)" stroke-dasharray="6 4"/>
    <circle id="ITEM_2_PAD" cx="960.00" cy="627.00" r="44.80" fill="var(--icon-pad-bg)" stroke="var(--primary-text)" stroke-width="2" opacity="0.9"/>
    <circle id="ITEM_2_PAD_INNER" cx="960.00" cy="627.00" r="34.94" fill="var(--accent-6)" fill-opacity="0.22"/>
    <g id="ITEM_2_ICON" transform="translate(932.0, 599.0)" data-icon-size="56">
      <g transform="translate(-13.415111111111106,-16.65066666666666) scale(3.451259259259259)" vector-effect="non-scaling-stroke" fill="#f1f5f9" fill-opacity="1.0" stroke="none">
        <path fill="#f1f5f9" d="M9 5a7 7 0 0 1 7 7h1v3h-1v4H9a7 7 0 0 1-7-7a7 7 0 0 1 7-7m0 3a4 4 0 0 0-4 4a4 4 0 0 0 4 4a4 4 0 0 0 4-4a4 4 0 0 0-4-4m8 9h5v4h-2v-2h-3z" vector-effect="non-scaling-stroke" stroke="none"/>
      </g>
    </g>
    <line id="ITEM_2_LINE" x1="828.0" y1="627.0" x2="748.0" y2="627.0" stroke="var(--accent-6)" stroke-width="3" stroke-dasharray="6 4" stroke-opacity="1.0"/>
    <circle id="ITEM_2_DOT" cx="748.0" cy="627.0" r="5" fill="var(--accent-6)" fill-opacity="1.0"/>
    <rect id="ITEM_2_LABEL_BG" x="318.0" y="571.0" width="420.0" height="207.0" rx="18" fill="var(--panel)" fill-opacity="0.88" stroke="var(--accent-2)" stroke-opacity="0.32" stroke-width="1.5"/>
    <text id="ITEM_2_HEAD" x="718.0" y="587.0" font-weight="bold" font-size="34" fill="var(--primary-text)" text-anchor="end" data-bg-id="ITEM_2_LABEL_BG" fill-opacity="1.0" style="font-size: 30px; font-family: Inter, Segoe UI, Kalam, Roboto, Helvetica, Arial, sans-serif; font-weight: 700; letter-spacing:-0.4px;" data-final-font-size="30">
      <tspan x="718.0" dy="33.25px">Cabin Space</tspan>
    </text>
    <rect id="ITEM_2_HEAD_FRAME" x="498.0" y="587.0" width="220" height="50" fill="none"/>
    <text id="ITEM_2_BODY" x="718.0" y="642.0" font-size="20" fill="var(--primary-text)" text-anchor="end" data-bg-id="ITEM_2_LABEL_BG" style="font-size: 26px; font-family: Inter, Segoe UI, Kalam, Roboto, Helvetica, Arial, sans-serif; font-weight: 400;" data-final-font-size="26">
      <tspan x="718.0" dy="32.84px">Available front-to-back room</tspan>
      <tspan x="718.0" dy="29.90px">for passenger comfort</tspan>
    </text>
    <rect id="ITEM_2_BODY_FRAME" x="338" y="642.0" width="380" height="120" fill="none"/>
    <path id="ITEM_1_BG" d="M 822.0 688.0 L 1098.0 688.0 L 1110.0 810.0 L 810.0 810.0 Z" fill="var(--accent-5)" filter="url(#svg6c580239-shadow)" stroke="var(--background)" stroke-width="2" fill-opacity="1.0"/>
    <line x1="842.0" y1="698.0" x2="830.0" y2="800.0" stroke="var(--background)" stroke-width="3" stroke-opacity="0.3"/>
    <circle cx="960" cy="749.0" r="43" fill="var(--icon-pad-bg)" stroke="none"/>
    <circle id="ITEM_1_RING" cx="960" cy="749.0" r="36" fill="none" stroke="var(--accent-6)" stroke-width="3" filter="url(#svg6c580239-shadow)" stroke-dasharray="6 4"/>
    <circle id="ITEM_1_PAD" cx="960.00" cy="749.00" r="44.80" fill="var(--icon-pad-bg)" stroke="var(--primary-text)" stroke-width="2" opacity="0.9"/>
    <circle id="ITEM_1_PAD_INNER" cx="960.00" cy="749.00" r="34.94" fill="var(--accent-5)" fill-opacity="0.22"/>
    <g id="ITEM_1_ICON" transform="translate(932.0, 721.0)" data-icon-size="56">
      <g transform="translate(-11.797333333333327,-13.415111111111106) scale(3.451259259259259)" vector-effect="non-scaling-stroke" fill="#f1f5f9" fill-opacity="1.0" stroke="none">
        <path fill="#f1f5f9" d="M7 18S4 10 4 6s2-4 2-4h1s1 0 1 1s-1 1-1 3s3 4 3 7s-3 5-3 5m5-1c-1 0-4 2.5-4 2.5c-.3.2-.2.5 0 .8c0 0 1 1.8 3 1.8h6c1.1 0 2-.9 2-2v-1c0-1.1-.9-2-2-2h-5Z" vector-effect="non-scaling-stroke" stroke="none"/>
      </g>
    </g>
    <line id="ITEM_1_LINE" x1="1104.0" y1="749.0" x2="1184.0" y2="749.0" stroke="var(--accent-5)" stroke-width="3" stroke-dasharray="6 4" stroke-opacity="1.0"/>
    <circle id="ITEM_1_DOT" cx="1184.0" cy="749.0" r="5" fill="var(--accent-5)" fill-opacity="1.0"/>
    <rect id="ITEM_1_LABEL_BG" x="1194.0" y="693.0" width="420.0" height="207.0" rx="18" fill="var(--panel)" fill-opacity="0.88" stroke="var(--accent-1)" stroke-opacity="0.32" stroke-width="1.5"/>
    <text id="ITEM_1_HEAD" x="1214.0" y="709.0" font-weight="bold" font-size="34" fill="var(--accent-5)" text-anchor="start" data-bg-id="ITEM_1_LABEL_BG" fill-opacity="1.0" style="font-size: 30px; font-family: Inter, Segoe UI, Kalam, Roboto, Helvetica, Arial, sans-serif; font-weight: 700; letter-spacing:-0.4px;" data-final-font-size="30">
      <tspan x="1214.0" dy="33.25px">Seat Geometry</tspan>
    </text>
    <rect id="ITEM_1_HEAD_FRAME" x="1214.0" y="709.0" width="220" height="50" fill="none"/>
    <text id="ITEM_1_BODY" x="1214.0" y="764.0" font-size="20" fill="var(--primary-text)" text-anchor="start" data-bg-id="ITEM_1_LABEL_BG" style="font-size: 26px; font-family: Inter, Segoe UI, Kalam, Roboto, Helvetica, Arial, sans-serif; font-weight: 400;" data-final-font-size="26">
      <tspan x="1214.0" dy="32.84px">Shape and angle of the</tspan>
      <tspan x="1214.0" dy="29.90px">specific vehicle cushion</tspan>
    </text>
    <rect id="ITEM_1_BODY_FRAME" x="1214" y="764.0" width="380" height="120" fill="none"/>
    <rect x="790.0" y="810.0" width="340" height="40" fill="var(--muted-text)" rx="4"/>
    <path d="M 710 850.0 Q 960 820.0 1210 850.0 L 1260 980 L 660 980 Z" fill="var(--panel)"/>
  </g>
</svg>
